<svg xmlns="http://www.w3.org/2000/svg" width="128" height="128" viewBox="-4 -4 136 136">
  <defs>
    <linearGradient id="iconGradient" x1="0%" y1="0%" x2="100%" y2="100%">
      <stop offset="0%" stop-color="#6366F1"/>
      <stop offset="50%" stop-color="#8B5CF6"/>
      <stop offset="100%" stop-color="#06B6D4"/>
    </linearGradient>
  </defs>
  <g fill="none" fill-rule="evenodd">
    <!-- Outer selection frame -->
    <path fill="url(#iconGradient)" fill-rule="nonzero" d="M120 75a8 8 0 0 1 8 8v26.67a21.33 21.33 0 0 1-21.33 21.33H80a8 8 0 1 1 0-16h26.67a5.33 5.33 0 0 0 5.33-5.33V83a8 8 0 0 1 8-8M8 75a8 8 0 0 1 8 8v26.67a5.33 5.33 0 0 0 5.33 5.33H48a8 8 0 1 1 0 16H21.33A21.33 21.33 0 0 1 0 109.33V83a8 8 0 0 1 8-8M21.33 0H48a8 8 0 0 1 1.09 15.93L48 16H21.33a5.33 5.33 0 0 0-5.26 4.37L16 21.33V48a8 8 0 0 1-15.93 1.09L0 48V21.33A21.33 21.33 0 0 1 19.82.06L21.33 0zM106.67 0A21.33 21.33 0 0 1 128 21.33V48a8 8 0 1 1-16 0V21.33a5.33 5.33 0 0 0-4.37-5.26L106.67 16H80a8 8 0 1 1 0-16h26.67z"/>
    <!-- Code brackets < > -->
    <path fill="url(#iconGradient)" d="m41.76 64 13.79-13.79-7.55-7.55L26.46 64l21.54 21.54 7.55-7.55zM86.24 64l-13.79 13.79 7.55 7.55L101.54 64 80 42.46l-7.55 7.55z"/>
  </g>
</svg>
